<svg width="75" height="16" viewBox="0 0 75 16" fill="none" xmlns="http://www.w3.org/2000/svg">
<mask id="mask0_16545_2860" style="mask-type:luminance" maskUnits="userSpaceOnUse" x="0" y="2" width="75" height="12">
<path d="M75 2H0V14H75V2Z" fill="white"/>
</mask>
<g mask="url(#mask0_16545_2860)">
<path d="M0 3.21446C0 2.54372 0.567388 2 1.2673 2H73.7327C74.4327 2 75.0002 2.54372 75.0002 3.21446V12.7856C75.0002 13.4562 74.4327 13.9999 73.7327 13.9999H1.2673C0.567388 13.9999 0 13.4562 0 12.7856V3.21446Z" fill="#004C8F"/>
<path fill-rule="evenodd" clip-rule="evenodd" d="M39.2457 7.33338H41.0829C41.0515 7.02409 40.9917 6.76308 40.8975 6.54728C40.767 6.23799 40.58 5.96638 40.3364 5.7295C40.096 5.49262 39.7879 5.3145 39.4123 5.19232C39.0351 5.07008 38.636 5.00977 38.2054 5.00977C37.7103 5.00977 37.2639 5.08972 36.8584 5.25575C36.5379 5.38547 36.2502 5.57857 35.9862 5.83659C35.7237 6.09611 35.5179 6.41755 35.3685 6.79476C35.2193 7.17496 35.1454 7.58996 35.1454 8.02748C35.1454 8.55106 35.2444 9.02033 35.455 9.44731C35.6012 9.7506 35.8055 10.0192 36.0679 10.2591C36.3257 10.4899 36.6495 10.674 37.0329 10.8038C37.4117 10.9306 37.8312 10.9924 38.2807 10.9924C38.7365 10.9924 39.1342 10.9305 39.4784 10.7993C39.8225 10.6695 40.1211 10.4824 40.371 10.2395C40.6177 9.99952 40.8 9.76114 40.9022 9.52127C41.009 9.27984 41.0829 8.98409 41.1238 8.63102H39.2536C39.219 8.94187 39.1153 9.17419 38.9361 9.32961C38.7617 9.49558 38.5228 9.56805 38.2242 9.56805C37.9743 9.56805 37.7715 9.52121 37.605 9.42011C37.4431 9.31907 37.3127 9.16814 37.2199 8.95846C37.1304 8.75476 37.0816 8.45601 37.0816 8.05767C37.0816 7.4873 37.19 7.07236 37.4069 6.8159C37.6222 6.56237 37.902 6.43414 38.2462 6.43414C38.5227 6.43414 38.7475 6.51111 38.9267 6.66803C39.1043 6.82794 39.2112 7.05122 39.2457 7.33338ZM16.4775 5.16106V10.8389H18.4232V8.63593H20.2463V10.8389H22.195V5.16106H20.2463V7.07728H18.4232V5.16106H16.4775ZM25.7751 6.57184H25.2706V9.42808L25.761 9.42508C26.1224 9.42508 26.3959 9.37675 26.5798 9.27565C26.7637 9.17611 26.9067 9.01464 27.0057 8.78986C27.1078 8.56502 27.155 8.28736 27.155 7.95543C27.155 7.75173 27.1314 7.55864 27.0874 7.37608C27.0387 7.19197 26.9727 7.04559 26.8909 6.9294C26.8014 6.81171 26.6992 6.73325 26.5735 6.68042C26.4037 6.60801 26.1382 6.57184 25.7751 6.57184ZM27.1723 10.7227C26.8611 10.8027 26.4807 10.8389 26.0219 10.8389H23.3674V5.16106H26.0722C26.6819 5.16106 27.2069 5.25155 27.6469 5.43567C28.0885 5.61972 28.4343 5.93206 28.6889 6.36359C28.9404 6.80416 29.0645 7.3323 29.0645 7.95692C29.0645 8.38247 29.0094 8.75817 28.8947 9.09166C28.7832 9.42658 28.6401 9.69969 28.4767 9.91699C28.3117 10.1267 28.1325 10.2957 27.9345 10.4209C27.7396 10.5431 27.485 10.6458 27.1723 10.7227ZM29.9567 10.8389V5.16106H34.5709V6.5613H31.8771V7.47113H34.0318V8.83358H31.8771V10.8389H29.9567ZM47.3204 6.43905C47.5954 6.43905 47.773 6.45109 47.861 6.47523C47.9742 6.50691 48.0685 6.56878 48.136 6.6503C48.2052 6.73475 48.2414 6.83285 48.2414 6.94605C48.2414 7.09087 48.1817 7.21006 48.0669 7.30062C47.9444 7.39567 47.7353 7.43945 47.4352 7.43945H46.7028V6.43905H47.3204ZM47.8092 10.8389C48.2697 10.8389 48.5934 10.8177 48.7836 10.7785C48.9706 10.7363 49.1639 10.6699 49.3604 10.5824C49.5521 10.4859 49.6998 10.3953 49.7972 10.2957C49.9481 10.1614 50.0597 9.99844 50.1414 9.80229C50.2232 9.60458 50.264 9.3813 50.264 9.14143C50.264 8.7989 50.176 8.51675 49.9969 8.28736C49.8177 8.05653 49.5772 7.90416 49.2739 7.82115C49.7878 7.5103 50.044 7.10896 50.044 6.62011C50.044 6.11467 49.8177 5.72836 49.3698 5.46579C49.024 5.26365 48.485 5.16106 47.7542 5.16106H44.82V10.8389H47.8092ZM47.4964 8.46093C47.8815 8.46093 48.1314 8.5062 48.2571 8.60125C48.3734 8.69325 48.4362 8.81998 48.4362 8.9905C48.4362 9.16251 48.3734 9.29829 48.246 9.3934C48.125 9.49444 47.872 9.53673 47.4964 9.53673H46.7028V8.46093H47.4964ZM53.2959 8.93019H54.5327L53.9057 6.86453L53.2959 8.93019ZM52.9392 10.0935L52.7144 10.8389H50.8159L52.9392 5.16106H54.9147L57.0364 10.8389H55.1017L54.8754 10.0935H52.9392ZM57.8599 10.8389V5.16106H59.6719L61.7169 8.20141V5.16106H63.5807V10.8389H61.7294L59.7288 7.87397V10.8389H57.8599ZM64.875 5.16106V10.8389H66.7594V9.06746L67.2763 8.57712L68.6988 10.8389H71.0282L68.6357 7.29906L70.8032 5.16106H68.5182L66.7594 7.03355V5.16106H64.875Z" fill="white"/>
<path d="M0 3.08144C0 2.48418 0.505238 2 1.12849 2H12.499V13.9999H1.12849C0.505238 13.9999 0 13.5158 0 12.9186V3.08144Z" fill="#ED232A"/>
<path fill-rule="evenodd" clip-rule="evenodd" d="M5.62516 2H6.87453V4.10034H10.3125V7.4014H12.499V8.60094H10.3125V11.9012H6.87453V13.9999H5.62516V11.9012H2.18734V8.60094H0V7.4014H2.18734V4.10034H5.62516V2Z" fill="white"/>
<path d="M4.37109 6.20117H8.12091V9.80135H4.37109V6.20117Z" fill="#004C8F"/>
</g>
</svg>
