<svg width="62" height="16" viewBox="0 0 62 16" fill="none" xmlns="http://www.w3.org/2000/svg">
<g clip-path="url(#clip0_16927_6870)">
<path d="M47.1271 7.01031C47.1027 6.13086 46.8338 5.49002 46.3257 5.10342C45.8261 4.7365 45.0487 4.55762 43.9496 4.55762C42.3271 4.56916 40.8005 5.1248 40.8005 5.1248L40.5881 6.85078L40.9435 6.69668C41.4227 6.48862 41.9098 6.32331 42.3905 6.20621C42.8443 6.09692 43.2881 6.04159 43.7094 6.04159C44.2937 6.04159 44.6998 6.11762 44.9535 6.27478C45.1818 6.41394 45.297 6.62948 45.3055 6.93428C45.3129 7.18139 45.2225 7.3847 45.0281 7.55747C44.8817 7.68883 44.5305 7.91047 43.6898 8.21935L41.7794 8.91586C41.0498 9.18536 40.5187 9.52377 40.2013 9.92124C39.8724 10.3319 39.7146 10.8591 39.7329 11.4874C39.7532 12.2225 40.0492 12.8169 40.6115 13.2541C40.8286 13.4238 41.0918 13.566 41.3479 13.6651C41.714 13.8073 42.1574 13.8806 42.5473 13.9129C43.5302 13.9937 44.4441 13.7035 45.1693 13.1298L45.1083 13.7279H47.0902V12.0148L47.1278 7.70274C47.1305 7.64538 47.1271 7.01099 47.1271 7.01099V7.01031ZM43.5543 12.3437C43.3738 12.3641 43.1915 12.3743 43.01 12.3743C42.5585 12.3743 42.2133 12.2874 41.9843 12.1163C41.7676 11.9534 41.6575 11.7229 41.6487 11.4123C41.6405 11.1272 41.7154 10.8889 41.8732 10.7023C42.0311 10.5101 42.3474 10.3221 42.8118 10.1439L44.6409 9.45283C44.9095 9.34319 45.0988 9.25257 45.2526 9.1599C45.2713 9.14972 45.2892 9.13886 45.3078 9.128L45.2374 11.7738C45.2364 11.8122 44.9126 11.9585 44.8675 11.9819C44.7503 12.0423 44.0641 12.2857 43.5543 12.3437Z" fill="#00ADE9"/>
<path d="M38.6113 11.6594L38.6059 11.6132L38.3569 11.7334C37.9278 11.9411 37.4912 12.1057 37.0589 12.2225C36.3859 12.4014 35.6567 12.4709 34.9809 12.2693C34.754 12.2011 34.5413 12.0983 34.3489 11.9628C34.166 11.8342 34.0078 11.6828 33.8787 11.5121C33.3388 10.7966 33.2287 9.79185 33.2765 8.91307C33.3141 8.22845 33.4607 7.50344 33.8787 6.95322C34.0074 6.78317 34.166 6.63145 34.3489 6.50281C34.5413 6.36771 34.754 6.26453 34.9809 6.19698C35.9286 5.91424 36.9167 6.14437 37.8211 6.45732C38.1235 6.56187 38.465 6.6956 38.8447 6.86497L39.1593 5.09588C38.3379 4.83045 37.484 4.67296 36.6288 4.59082C35.8775 4.51852 35.1147 4.55619 34.3885 4.78463C33.6982 5.00118 33.123 5.3698 32.6766 5.87996C31.8257 6.85411 31.5731 8.29362 31.6442 9.56545C31.7008 10.5803 31.9948 11.7334 32.6268 12.5286C33.2562 13.3212 34.1917 13.734 35.1614 13.8426C36.1447 13.9529 37.1003 13.8432 38.0568 13.5965C38.4253 13.5014 38.7901 13.382 39.1465 13.2462L39.1841 13.2319L39.1634 13.1963C38.8575 12.6906 38.6713 12.1736 38.611 11.6601L38.6113 11.6594Z" fill="#00ADE9"/>
<path d="M54.6725 4.90553C54.2444 4.78945 53.8003 4.70357 53.3512 4.65096C52.8607 4.58511 52.3425 4.55897 51.7666 4.57052C50.6309 4.5936 49.8265 4.78639 49.3086 5.1601C48.7846 5.55146 48.5014 6.19128 48.4682 7.06157L48.4621 7.74925L48.4641 12.0447L48.4614 13.7245H50.4612L50.4348 13.4109C50.4026 13.1451 50.362 12.396 50.362 12.396C50.3562 12.2629 50.3522 12.1224 50.3488 11.9751L50.2295 8.26483C50.218 7.88468 50.2221 7.47499 50.257 7.12775C50.2905 6.94243 50.387 6.65731 50.655 6.41767C51.6728 5.56096 53.4602 6.38509 53.4602 6.38509C53.4765 6.30532 53.5182 6.21334 53.5669 6.12407C53.7153 5.87731 53.886 5.64412 54.0798 5.43402C54.2559 5.24326 54.4551 5.06608 54.6728 4.90553H54.6725Z" fill="#00ADE9"/>
<path d="M60.2302 2.14062C60.2414 2.30185 60.281 3.23935 60.2871 4.75421C59.8905 4.68293 59.567 4.6276 59.167 4.59027C58.3913 4.51797 57.6038 4.55565 56.8539 4.78408C56.1415 5.00063 55.5467 5.36925 55.0864 5.87941C54.2078 6.85356 53.9473 8.29307 54.0205 9.5649C54.0787 10.5798 54.3826 11.7328 55.0349 12.5281C55.6849 13.3207 56.651 13.7334 57.6525 13.842C57.6996 13.8468 57.9882 13.8682 58.0861 13.8749C58.3344 13.8916 58.5834 13.8994 58.832 13.8912C59.1656 13.8811 59.4986 13.8502 59.8285 13.8003C59.9497 13.7819 60.0747 13.7575 60.1997 13.7266C60.3156 13.6981 60.4297 13.6601 60.5432 13.619C60.5825 13.6048 60.8074 13.5124 60.866 13.4836C61.1559 13.3441 61.4313 13.1567 61.6206 12.9089C61.6694 12.8448 61.7121 12.7769 61.7487 12.7043C61.8256 12.5498 61.8699 12.3764 61.8706 12.1809V2.14062H60.2302ZM57.4656 12.2695C57.2308 12.2012 57.0114 12.0984 56.8122 11.963C56.6232 11.8343 56.4599 11.6829 56.3271 11.5122C55.7693 10.7967 55.6558 9.79198 55.7053 8.9132C55.7435 8.22858 55.8953 7.50356 56.3268 6.95335C56.4603 6.7833 56.6235 6.63158 56.8122 6.50294C57.0114 6.36784 57.2308 6.26466 57.4656 6.19711C58.4086 5.92455 59.3255 6.19541 60.2322 6.49106C60.2322 6.49106 60.2393 11.576 60.2393 11.6045C60.2387 11.9076 59.8861 12.0868 59.6645 12.1863C59.3472 12.3292 58.7327 12.3754 58.7327 12.3754C58.3063 12.4117 57.8764 12.3886 57.4659 12.2698L57.4656 12.2695Z" fill="#00ADE9"/>
<path d="M16.9176 9.03857C16.3946 8.6041 15.7182 8.32374 15.121 8.0763C14.2979 7.73551 13.5873 7.44089 13.5873 6.89543C13.5873 6.65647 13.6987 6.43788 13.9009 6.28005C14.1143 6.11339 14.4121 6.02175 14.7393 6.02175C15.7686 6.02175 16.5894 6.75117 16.5971 6.75796L16.7973 6.94091L17.7095 5.22715L17.6052 5.1165C17.5652 5.07441 16.6046 4.08057 14.7518 4.08057C13.863 4.08057 13.0453 4.36535 12.4489 4.88195C11.8432 5.40671 11.5099 6.1307 11.5099 6.92089C11.5099 7.71107 11.8077 8.31389 12.4207 8.82473C12.9359 9.25377 13.5775 9.53108 14.1977 9.79923C15.0451 10.1651 15.7768 10.4811 15.7768 11.0439C15.7768 11.4726 15.4875 11.9305 14.6756 11.9305C13.5118 11.9305 12.5769 11.0419 12.5677 11.033L12.393 10.8626L11.2593 12.4369L11.3727 12.5635C11.3849 12.5771 11.6779 12.9012 12.229 13.224C12.7337 13.5197 13.5636 13.8717 14.6502 13.8717C15.6003 13.8717 16.4098 13.5794 16.9921 13.0272C17.5398 12.5075 17.8413 11.7896 17.8413 11.0055C17.8413 10.2215 17.5391 9.55552 16.9176 9.03891" fill="#2E3180"/>
<path d="M28.6277 4.22168H26.5029V13.73H28.6277V4.22168Z" fill="#2E3180"/>
<path d="M25.171 9.45685C24.961 9.12557 24.6728 8.86251 24.3296 8.68669C24.8831 8.2417 25.1961 7.55911 25.1961 6.77979C25.1961 6.00047 24.8963 5.33451 24.3296 4.87798C23.7955 4.44827 23.054 4.22119 22.1842 4.22119H18.7266V13.7289H22.2221C23.1499 13.7289 23.9516 13.494 24.542 13.0493C25.2113 12.5449 25.5653 11.7935 25.5653 10.877C25.5653 10.3546 25.4291 9.86348 25.1707 9.45685M22.3495 11.9493H20.7321V6.00216H22.1585C22.7976 6.00216 23.1645 6.36026 23.1645 6.98446C23.1645 7.60867 22.8349 7.93486 22.1842 7.93486H21.6924V9.6846H22.3495C22.7089 9.6846 23.0083 9.79763 23.2153 10.0108C23.4324 10.2345 23.5211 10.4561 23.5211 10.7755C23.5211 11.4995 23.0723 11.9493 22.3498 11.9493" fill="#2E3180"/>
<path d="M4.90532 4.05078C2.19625 4.05078 0 6.25671 0 8.9779C0 11.5287 1.93036 13.6267 4.40368 13.8792V10.3003C3.87189 10.097 3.49321 9.58106 3.49321 8.97756C3.49321 8.19688 4.12661 7.56249 4.90532 7.56249C5.68404 7.56249 6.31744 8.19688 6.31744 8.97756C6.31744 9.58072 5.93875 10.0966 5.40697 10.3V13.8792C7.88029 13.6267 9.81065 11.5287 9.81065 8.9779C9.81065 6.25705 7.6144 4.05112 4.90532 4.05112" fill="#00ADE9"/>
</g>
<defs>
<clipPath id="clip0_16927_6870">
<rect width="62" height="11.7849" fill="white" transform="translate(0 2.14062)"/>
</clipPath>
</defs>
</svg>
